<?xml version="1.0" standalone="no"?>
<!DOCTYPE svg PUBLIC "-//W3C//DTD SVG 20010904//EN"
 "http://www.w3.org/TR/2001/REC-SVG-20010904/DTD/svg10.dtd">
<svg version="1.0" xmlns="http://www.w3.org/2000/svg"
 width="500.000000pt" height="500.000000pt" viewBox="0 0 500.000000 500.000000"
 preserveAspectRatio="xMidYMid meet">
<metadata>
Created by potrace 1.14, written by Peter Selinger 2001-2017
</metadata>
<g transform="translate(0.000000,500.000000) scale(0.100000,-0.100000)"
fill="#000000" stroke="none">
<path d="M2192 4348 c-17 -17 -15 -65 3 -75 13 -8 15 -54 16 -318 0 -210 -3
-311 -10 -313 -6 -2 -11 -19 -11 -38 0 -27 -4 -34 -20 -34 -16 0 -20 7 -20 34
0 19 -5 36 -10 38 -7 2 -11 68 -11 182 0 148 2 181 15 195 19 21 21 62 4 79
-20 20 -56 14 -74 -14 -16 -24 -16 -26 5 -54 20 -27 21 -41 21 -205 0 -144 -3
-179 -15 -191 -8 -9 -15 -26 -15 -39 0 -18 -6 -24 -27 -27 -23 -2 -29 -9 -33
-38 -5 -32 -8 -35 -42 -38 -21 -2 -38 -7 -38 -13 0 -5 -50 -9 -115 -9 -103 0
-119 2 -145 21 -28 21 -30 21 -54 5 -28 -18 -34 -54 -14 -74 17 -17 65 -15 75
3 7 12 33 15 127 16 68 0 122 -4 125 -10 3 -5 22 -11 41 -13 48 -4 48 -32 0
-36 -19 -2 -39 -10 -43 -18 -7 -12 -56 -14 -281 -14 -260 0 -274 1 -291 20
-20 22 -64 27 -83 8 -20 -20 -14 -56 14 -74 24 -16 26 -16 54 5 28 20 38 21
309 21 239 0 280 -2 285 -15 3 -9 19 -15 41 -15 24 0 35 -4 35 -15 0 -10 -10
-15 -34 -15 -18 0 -39 -7 -46 -15 -10 -12 -48 -15 -224 -15 -200 0 -212 1
-224 20 -15 25 -54 26 -75 2 -22 -24 -21 -45 1 -65 25 -23 59 -21 74 3 12 19
24 20 224 20 176 0 214 -3 224 -15 7 -8 28 -15 46 -15 24 0 34 -5 34 -15 0
-10 -10 -15 -29 -15 -16 0 -36 -7 -45 -15 -12 -12 -52 -15 -228 -15 -201 0
-215 1 -231 20 -9 11 -24 20 -32 20 -17 0 -55 -35 -55 -51 0 -6 5 -19 10 -30
14 -25 66 -26 81 -1 10 15 30 17 227 15 124 -1 218 -6 221 -12 4 -5 22 -11 41
-13 23 -2 35 -8 35 -18 0 -10 -12 -16 -35 -18 -19 -2 -37 -8 -40 -12 -3 -5
-130 -10 -283 -11 -245 -2 -279 0 -295 15 -23 20 -65 21 -82 2 -18 -23 -8 -59
22 -75 25 -14 29 -14 51 7 23 22 28 22 301 22 233 0 280 -2 292 -15 9 -8 29
-15 45 -15 19 0 29 -5 29 -15 0 -10 -10 -15 -34 -15 -18 0 -39 -7 -46 -15 -10
-11 -35 -15 -110 -15 -84 0 -99 3 -115 20 -34 38 -85 20 -85 -30 0 -50 51 -68
85 -30 16 17 31 20 115 20 73 0 101 -4 110 -14 6 -8 25 -16 42 -18 41 -4 50
-28 11 -28 -16 0 -38 -7 -49 -15 -16 -12 -74 -14 -346 -15 -204 0 -328 4 -328
10 0 5 -9 14 -20 20 -45 24 -92 -21 -71 -66 14 -31 65 -33 83 -4 12 19 24 20
340 20 272 0 328 -2 335 -14 4 -8 24 -16 43 -18 48 -4 48 -32 0 -36 -19 -2
-38 -8 -41 -13 -3 -6 -91 -10 -218 -10 -180 0 -216 2 -230 15 -27 25 -69 20
-82 -8 -24 -51 34 -95 75 -57 21 20 33 21 239 21 129 0 217 -4 217 -9 0 -6 17
-11 38 -13 34 -3 37 -6 42 -38 4 -29 10 -36 33 -38 21 -3 27 -9 27 -27 0 -13
7 -30 15 -39 11 -11 15 -37 15 -100 0 -73 -3 -89 -20 -106 -25 -25 -25 -52 0
-75 46 -41 101 17 66 70 -18 28 -24 205 -6 205 6 0 10 16 10 35 0 28 4 35 20
35 16 0 20 -7 20 -34 0 -19 5 -36 10 -38 7 -2 11 -74 11 -195 0 -181 -1 -193
-20 -212 -24 -24 -26 -41 -8 -63 19 -24 43 -28 66 -12 24 18 28 56 6 78 -22
22 -22 390 0 412 8 9 15 26 15 40 0 15 6 24 15 24 10 0 15 -10 15 -29 0 -16 7
-34 15 -41 13 -11 15 -60 15 -331 0 -308 -1 -319 -20 -329 -23 -12 -27 -59 -8
-78 18 -18 53 -14 73 8 15 17 16 24 7 45 -6 14 -16 25 -22 25 -7 0 -10 110
-10 324 0 275 2 325 15 336 8 7 15 25 15 41 0 19 5 29 15 29 9 0 15 -9 15 -24
0 -14 7 -31 15 -40 13 -12 15 -55 15 -258 0 -231 -1 -244 -20 -261 -39 -33
-15 -91 35 -85 43 5 57 49 27 81 -21 23 -22 30 -22 264 0 202 2 243 15 253 8
7 15 25 15 41 0 22 5 29 20 29 16 0 20 -7 20 -34 0 -21 6 -36 15 -40 13 -5 15
-48 15 -305 0 -287 -1 -301 -19 -311 -45 -24 -32 -90 17 -90 16 0 33 5 40 12
17 17 15 54 -3 72 -13 12 -15 62 -15 320 0 197 4 306 10 306 6 0 10 16 10 35
0 28 4 35 20 35 15 0 20 -7 20 -29 0 -16 7 -34 15 -41 12 -10 15 -39 15 -139
0 -115 -2 -127 -20 -139 -39 -24 -18 -92 29 -92 16 0 51 38 51 55 0 8 -9 23
-20 32 -18 16 -20 30 -20 144 0 100 3 129 15 139 8 7 15 25 15 41 0 19 5 29
15 29 9 0 15 -9 15 -23 0 -13 7 -32 15 -43 11 -15 14 -58 15 -209 0 -180 -1
-191 -20 -203 -22 -14 -27 -51 -8 -70 15 -15 61 -15 76 0 18 18 14 53 -8 73
-19 17 -20 31 -20 207 0 158 2 190 15 194 9 4 15 19 15 40 0 27 4 34 20 34 16
0 20 -7 20 -34 0 -19 5 -36 11 -38 6 -2 10 -79 10 -225 0 -212 -1 -223 -21
-251 -15 -20 -20 -37 -15 -51 7 -24 51 -38 74 -24 22 14 27 71 7 79 -14 5 -16
37 -16 240 0 149 4 234 10 234 6 0 10 16 10 35 0 28 4 35 20 36 47 3 60 14 60
50 0 27 3 29 35 29 19 0 35 5 35 10 0 6 68 10 185 10 112 0 185 -4 185 -10 0
-15 39 -32 60 -25 50 16 45 95 -6 95 -15 0 -35 -7 -45 -16 -15 -14 -46 -16
-196 -15 -114 0 -179 4 -181 11 -2 5 -19 10 -38 10 -27 0 -34 4 -34 20 0 16 7
20 34 20 21 0 36 6 40 15 5 13 49 15 319 15 301 0 315 -1 332 -20 34 -37 95
-18 95 29 0 16 -38 51 -55 51 -8 0 -23 -9 -32 -20 -17 -19 -30 -20 -336 -20
-270 0 -321 2 -333 15 -9 8 -26 15 -40 15 -15 0 -24 6 -24 15 0 10 10 15 29
15 16 0 34 7 41 15 11 13 60 15 326 15 301 0 315 -1 334 -20 25 -25 52 -26 73
-2 22 24 21 45 -1 65 -25 23 -59 21 -74 -3 -12 -19 -24 -20 -329 -20 -269 0
-318 2 -329 15 -7 8 -25 15 -41 15 -42 0 -37 26 6 34 19 4 35 11 35 16 0 17
156 12 170 -5 20 -24 50 -28 71 -9 21 19 25 54 7 72 -17 17 -67 15 -74 -3 -5
-12 -25 -15 -90 -15 -49 0 -84 4 -84 10 0 6 -15 10 -34 10 -20 0 -36 6 -39 14
-8 19 1 26 33 26 14 0 31 5 36 10 7 7 111 11 288 11 239 0 280 -2 295 -15 24
-22 68 -20 81 3 16 31 12 49 -16 67 -24 16 -26 16 -54 -5 -28 -20 -38 -21
-305 -21 -232 0 -279 2 -291 15 -9 8 -26 15 -40 15 -15 0 -24 6 -24 15 0 10
10 15 29 15 16 0 34 7 41 15 10 13 51 15 249 15 227 0 237 -1 254 -21 21 -24
65 -23 80 2 5 9 7 28 3 42 -9 37 -50 46 -80 18 -21 -20 -32 -21 -258 -21 -197
0 -238 2 -248 15 -7 8 -25 15 -41 15 -19 0 -29 5 -29 15 0 9 9 15 24 15 14 0
31 7 40 15 12 13 59 15 291 15 267 0 277 -1 305 -21 28 -21 30 -21 54 -5 28
18 32 36 16 67 -14 25 -62 25 -85 -1 -17 -19 -31 -20 -292 -20 -234 0 -274 2
-279 15 -4 9 -19 15 -40 15 -27 0 -34 4 -34 20 0 16 7 20 35 20 19 0 35 5 35
10 0 6 60 10 161 10 144 0 163 -2 186 -19 13 -11 32 -17 41 -14 21 7 42 32 42
50 0 18 -37 53 -55 53 -8 0 -23 -9 -32 -20 -16 -18 -30 -20 -180 -20 -102 0
-163 4 -163 10 0 6 -16 10 -35 10 -32 0 -35 3 -35 28 0 15 -5 33 -12 40 -7 7
-25 12 -40 12 -25 0 -28 3 -28 35 0 19 -4 35 -10 35 -6 0 -10 51 -10 134 0
105 3 136 15 146 24 20 28 50 9 71 -19 21 -54 25 -72 7 -17 -17 -15 -65 3 -75
12 -7 15 -36 16 -143 1 -91 -2 -135 -10 -138 -6 -2 -11 -19 -11 -38 0 -27 -4
-34 -20 -34 -16 0 -20 7 -20 34 0 21 -6 36 -15 40 -13 5 -15 48 -15 310 0 295
1 306 20 316 23 12 27 59 8 78 -18 18 -53 15 -71 -6 -22 -25 -21 -45 3 -67 19
-17 20 -31 20 -319 -1 -249 -3 -304 -15 -320 -8 -11 -15 -30 -15 -43 0 -14 -6
-23 -15 -23 -10 0 -15 10 -15 29 0 16 -7 34 -15 41 -13 10 -15 52 -15 259 0
234 1 247 20 264 35 30 16 87 -30 87 -46 0 -65 -57 -30 -87 19 -17 20 -30 20
-264 0 -207 -2 -249 -15 -259 -8 -7 -15 -25 -15 -41 0 -22 -5 -29 -20 -29 -16
0 -20 7 -20 35 0 19 -4 35 -10 35 -6 0 -10 110 -10 309 0 258 2 311 15 321 24
20 28 50 9 71 -19 21 -54 25 -72 7 -19 -19 -15 -66 8 -78 19 -10 20 -21 20
-316 0 -262 -2 -305 -15 -310 -9 -4 -15 -19 -15 -38 0 -38 -6 -47 -26 -39 -8
3 -14 19 -14 38 0 20 -6 35 -15 39 -12 4 -15 29 -15 134 0 116 2 131 20 147
34 31 17 95 -26 95 -19 0 -54 -36 -54 -55 0 -8 9 -23 20 -32 18 -16 20 -30 20
-151 0 -105 -3 -137 -15 -148 -8 -9 -15 -26 -15 -40 0 -15 -6 -24 -15 -24 -10
0 -15 10 -15 29 0 16 -7 34 -15 41 -12 10 -15 39 -15 144 0 120 2 132 20 144
28 17 26 58 -5 78 -23 15 -27 15 -50 0 -31 -20 -33 -61 -5 -78 18 -12 20 -24
20 -144 0 -105 -3 -134 -15 -144 -8 -7 -15 -25 -15 -41 0 -19 -5 -29 -15 -29
-9 0 -15 9 -15 24 0 14 -7 31 -15 40 -13 12 -15 61 -15 316 0 288 1 303 20
327 21 27 19 60 -4 75 -17 12 -51 9 -64 -4z m56 -36 c3 -16 -2 -22 -17 -22
-24 0 -35 15 -27 36 9 23 40 13 44 -14z m340 0 c3 -16 -2 -22 -17 -22 -24 0
-35 15 -27 36 9 23 40 13 44 -14z m227 3 c0 -13 -8 -21 -22 -23 -17 -3 -23 2
-23 16 0 10 3 22 7 26 13 13 38 1 38 -19z m-115 -101 c11 -12 10 -18 -3 -32
-16 -15 -18 -15 -34 0 -13 14 -14 20 -3 32 7 9 16 16 20 16 4 0 13 -7 20 -16z
m-563 -140 c7 -19 -20 -49 -36 -40 -12 8 -15 39 -4 49 12 12 33 7 40 -9z m227
-93 c10 -16 -5 -41 -24 -41 -19 0 -34 25 -24 41 3 5 14 9 24 9 10 0 21 -4 24
-9z m111 -16 c0 -30 -39 -27 -43 3 -3 20 0 23 20 20 15 -2 23 -10 23 -23z
m453 1 c4 -21 -14 -37 -35 -29 -14 5 -18 35 -6 47 12 12 38 1 41 -18z m-798
-371 c0 -16 -6 -25 -15 -25 -9 0 -15 9 -15 25 0 16 6 25 15 25 9 0 15 -9 15
-25z m110 0 c0 -16 -6 -25 -15 -25 -9 0 -15 9 -15 25 0 16 6 25 15 25 9 0 15
-9 15 -25z m110 0 c0 -14 -4 -25 -10 -25 -5 0 -10 11 -10 25 0 14 5 25 10 25
6 0 10 -11 10 -25z m120 0 c0 -16 -6 -25 -15 -25 -9 0 -15 9 -15 25 0 16 6 25
15 25 9 0 15 -9 15 -25z m110 0 c0 -16 -6 -25 -15 -25 -9 0 -15 9 -15 25 0 16
6 25 15 25 9 0 15 -9 15 -25z m110 0 c0 -16 -6 -25 -15 -25 -9 0 -15 9 -15 25
0 16 6 25 15 25 9 0 15 -9 15 -25z m120 0 c0 -16 -6 -25 -15 -25 -9 0 -15 9
-15 25 0 16 6 25 15 25 9 0 15 -9 15 -25z m110 0 c0 -16 -6 -25 -15 -25 -9 0
-15 9 -15 25 0 16 6 25 15 25 9 0 15 -9 15 -25z m70 -535 l0 -480 -480 0 -480
0 0 480 0 480 480 0 480 0 0 -480z m-1327 408 c7 -21 -4 -38 -23 -38 -19 0
-34 25 -24 41 8 13 42 11 47 -3z m1827 -8 c0 -24 -26 -38 -42 -22 -16 16 -2
42 22 42 13 0 20 -7 20 -20z m-1490 -5 c0 -9 -9 -15 -25 -15 -16 0 -25 6 -25
15 0 9 9 15 25 15 16 0 25 -6 25 -15z m1070 0 c0 -9 -9 -15 -25 -15 -16 0 -25
6 -25 15 0 9 9 15 25 15 16 0 25 -6 25 -15z m-1735 -110 c0 -22 -31 -33 -48
-16 -7 7 -6 15 3 26 17 21 45 15 45 -10z m2395 10 c15 -18 5 -35 -20 -35 -23
0 -32 13 -24 34 8 20 28 21 44 1z m-1730 -10 c0 -9 -9 -15 -25 -15 -16 0 -25
6 -25 15 0 9 9 15 25 15 16 0 25 -6 25 -15z m1070 0 c0 -9 -9 -15 -25 -15 -16
0 -25 6 -25 15 0 9 9 15 25 15 16 0 25 -6 25 -15z m-1610 -101 c11 -12 11 -18
-2 -31 -19 -18 -38 -10 -38 16 0 33 20 40 40 15z m2190 0 c11 -12 11 -18 -2
-31 -19 -18 -38 -10 -38 16 0 33 20 40 40 15z m-1650 -14 c0 -5 -11 -10 -25
-10 -14 0 -25 5 -25 10 0 6 11 10 25 10 14 0 25 -4 25 -10z m1070 0 c0 -5 -11
-10 -25 -10 -14 0 -25 5 -25 10 0 6 11 10 25 10 14 0 25 -4 25 -10z m-1605
-115 c0 -30 -39 -27 -43 3 -3 20 0 23 20 20 15 -2 23 -10 23 -23z m2268 13 c7
-21 -4 -38 -23 -38 -19 0 -34 25 -24 41 8 13 42 11 47 -3z m-1733 -13 c0 -9
-9 -15 -25 -15 -16 0 -25 6 -25 15 0 9 9 15 25 15 16 0 25 -6 25 -15z m1070 0
c0 -9 -9 -15 -25 -15 -16 0 -25 6 -25 15 0 9 9 15 25 15 16 0 25 -6 25 -15z
m-1735 -110 c0 -21 -31 -33 -46 -18 -5 5 -7 17 -3 27 9 24 49 17 49 -9z m1990
0 c0 -23 -34 -33 -46 -14 -10 17 9 41 30 37 9 -2 16 -12 16 -23z m-1324 0 c0
-5 -12 -11 -26 -13 -18 -2 -25 1 -25 13 0 12 7 15 25 13 14 -2 26 -7 26 -13z
m1069 0 c0 -9 -9 -15 -25 -15 -16 0 -25 6 -25 15 0 9 9 15 25 15 16 0 25 -6
25 -15z m-1382 -109 c5 -24 -10 -38 -31 -30 -20 7 -23 40 -4 47 19 8 32 2 35
-17z m2117 -7 c0 -28 -23 -32 -39 -6 -8 14 -8 20 4 27 22 14 35 6 35 -21z
m-1805 1 c0 -15 -7 -20 -25 -20 -18 0 -25 5 -25 20 0 15 7 20 25 20 18 0 25
-5 25 -20z m1070 0 c0 -15 -7 -20 -25 -20 -18 0 -25 5 -25 20 0 15 7 20 25 20
18 0 25 -5 25 -20z m-1835 -115 c0 -30 -39 -27 -43 3 -3 20 0 23 20 20 15 -2
23 -10 23 -23z m2575 5 c0 -24 -26 -38 -42 -22 -16 16 -2 42 22 42 13 0 20 -7
20 -20z m-1810 -5 c0 -9 -9 -15 -25 -15 -16 0 -25 6 -25 15 0 9 9 15 25 15 16
0 25 -6 25 -15z m1070 0 c0 -9 -9 -15 -25 -15 -16 0 -25 6 -25 15 0 9 9 15 25
15 16 0 25 -6 25 -15z m-1605 -110 c0 -13 -8 -21 -22 -23 -19 -3 -23 1 -23 23
0 22 4 26 23 23 14 -2 22 -10 22 -23z m2063 2 c4 -20 -25 -34 -40 -19 -15 15
-1 44 19 40 10 -2 19 -11 21 -21z m-1528 -2 c0 -9 -9 -15 -25 -15 -16 0 -25 6
-25 15 0 9 9 15 25 15 16 0 25 -6 25 -15z m1070 0 c0 -9 -9 -15 -25 -15 -16 0
-25 6 -25 15 0 9 9 15 25 15 16 0 25 -6 25 -15z m-940 -140 c0 -16 -6 -25 -15
-25 -9 0 -15 9 -15 25 0 16 6 25 15 25 9 0 15 -9 15 -25z m110 0 c0 -16 -6
-25 -15 -25 -9 0 -15 9 -15 25 0 16 6 25 15 25 9 0 15 -9 15 -25z m110 0 c0
-14 -4 -25 -10 -25 -5 0 -10 11 -10 25 0 14 5 25 10 25 6 0 10 -11 10 -25z
m120 0 c0 -16 -6 -25 -15 -25 -9 0 -15 9 -15 25 0 16 6 25 15 25 9 0 15 -9 15
-25z m110 0 c0 -16 -6 -25 -15 -25 -9 0 -15 9 -15 25 0 16 6 25 15 25 9 0 15
-9 15 -25z m110 0 c0 -16 -6 -25 -15 -25 -9 0 -15 9 -15 25 0 16 6 25 15 25 9
0 15 -9 15 -25z m120 0 c0 -16 -6 -25 -15 -25 -9 0 -15 9 -15 25 0 16 6 25 15
25 9 0 15 -9 15 -25z m110 0 c0 -16 -6 -25 -15 -25 -9 0 -15 9 -15 25 0 16 6
25 15 25 9 0 15 -9 15 -25z m-790 -270 c15 -18 5 -35 -20 -35 -10 0 -22 5 -25
10 -7 11 12 40 25 40 4 0 13 -7 20 -15z m568 -93 c3 -16 -2 -22 -17 -22 -24 0
-35 15 -27 36 9 23 40 13 44 -14z m-453 -127 c0 -30 -39 -27 -43 3 -3 20 0 23
20 20 15 -2 23 -10 23 -23z m569 16 c10 -16 -5 -41 -24 -41 -23 0 -34 16 -26
35 6 16 42 20 50 6z m112 -96 c-3 -9 -14 -15 -23 -13 -22 4 -30 38 -11 49 18
11 43 -15 34 -36z m-456 -10 c10 -12 10 -18 0 -30 -16 -20 -36 -19 -44 1 -6
16 9 44 24 44 4 0 13 -7 20 -15z m115 -130 c0 -30 -39 -27 -43 3 -3 20 0 23
20 20 15 -2 23 -10 23 -23z m-225 -35 c0 -24 -26 -38 -42 -22 -16 16 -2 42 22
42 13 0 20 -7 20 -20z"/>
<path d="M2132 3438 c-17 -17 -17 -739 0 -756 17 -17 739 -17 756 0 17 17 17
739 0 756 -17 17 -739 17 -756 0z m641 -18 l107 0 -2 -362 -3 -363 -365 0
-365 0 0 360 0 360 100 5 c55 3 172 4 260 3 88 -1 208 -2 268 -3z"/>
<path d="M1263 1155 c-50 -35 -50 -145 0 -180 42 -30 137 -9 137 30 0 25 -21
28 -41 6 -24 -26 -51 -27 -72 -3 -20 22 -23 92 -5 110 15 15 53 15 78 0 16
-10 22 -10 32 0 11 11 9 17 -11 33 -28 23 -88 25 -118 4z"/>
<path d="M1670 1065 c0 -98 1 -105 20 -105 19 0 20 7 20 105 0 98 -1 105 -20
105 -19 0 -20 -7 -20 -105z"/>
<path d="M2000 1065 c0 -98 1 -105 20 -105 17 0 20 7 20 45 0 32 4 45 14 45
22 0 44 -26 51 -60 5 -23 12 -30 31 -30 l24 0 -20 52 c-17 46 -18 54 -5 68 21
23 19 46 -5 70 -15 15 -33 20 -75 20 l-55 0 0 -105z m95 61 c27 -19 13 -46
-25 -46 -25 0 -30 4 -30 23 0 39 21 48 55 23z"/>
<path d="M2464 1158 c-29 -14 -44 -49 -44 -104 0 -62 32 -94 93 -94 48 0 84
27 74 55 -7 17 -27 21 -27 5 0 -6 -11 -15 -25 -22 -39 -17 -75 12 -75 60 0 63
37 91 85 66 40 -21 60 0 26 27 -25 21 -73 24 -107 7z"/>
<path d="M2861 1086 c5 -104 20 -126 86 -126 69 0 83 22 83 125 0 78 -2 85
-20 85 -18 0 -20 -7 -20 -80 0 -68 -3 -81 -19 -90 -50 -26 -71 2 -71 96 0 69
-2 74 -21 74 -20 0 -21 -4 -18 -84z"/>
<path d="M3320 1065 c0 -98 1 -105 20 -105 19 0 20 7 20 105 0 98 -1 105 -20
105 -19 0 -20 -7 -20 -105z"/>
<path d="M3630 1150 c0 -16 7 -20 30 -20 l30 0 0 -85 c0 -78 2 -85 20 -85 18
0 20 7 20 84 l0 85 27 3 c17 2 29 10 31 21 3 15 -6 17 -77 17 -74 0 -81 -2
-81 -20z"/>
<path d="M2050 782 c0 -80 15 -102 72 -102 50 0 63 20 63 99 0 52 -3 66 -15
66 -11 0 -16 -16 -20 -65 -5 -59 -7 -65 -29 -68 -32 -5 -41 12 -41 81 0 44 -3
57 -15 57 -12 0 -15 -14 -15 -68z"/>
<path d="M2350 830 c-11 -11 -20 -24 -20 -28 0 -18 27 -43 55 -50 36 -10 47
-42 15 -42 -12 0 -30 5 -40 10 -26 14 -39 -9 -15 -27 31 -22 82 -17 100 11 22
33 6 63 -38 74 -19 5 -33 16 -36 27 -3 15 2 17 33 12 40 -6 56 7 27 22 -30 17
-59 13 -81 -9z"/>
<path d="M2667 844 c-4 -4 -7 -36 -7 -71 0 -54 -3 -63 -18 -63 -10 0 -23 5
-30 12 -9 9 -13 7 -18 -6 -15 -40 66 -51 91 -12 28 43 11 169 -18 140z"/>
<path d="M2840 835 c0 -8 9 -15 20 -15 18 0 20 -7 20 -70 0 -63 2 -70 20 -70
18 0 20 7 20 70 0 69 1 70 26 70 16 0 24 5 22 13 -3 7 -28 13 -66 15 -51 2
-62 0 -62 -13z"/>
</g>
</svg>
